<?xml version="1.0" encoding="utf-8"?>
<!-- Generator: Adobe Illustrator 22.0.1, SVG Export Plug-In . SVG Version: 6.00 Build 0)  -->
<svg version="1.1" id="Layer_1" xmlns="http://www.w3.org/2000/svg" xmlns:xlink="http://www.w3.org/1999/xlink" x="0px" y="0px"
	 viewBox="0 0 532.9 533.8" style="enable-background:new 0 0 532.9 533.8;" xml:space="preserve">
<style type="text/css">
	.st0{fill:none;stroke:#1075B3;stroke-miterlimit:10;}
</style>
<g>
	<path class="st0" d="M11.6,33.5c0,0,91,182,250,263s227,198,227,198"/>
	<path class="st0" d="M22.8,31.4c0,0,86.6,176.6,230.7,263.9s216,201.1,216,201.1"/>
	<path class="st0" d="M34,29.3c0,0,82.1,171.1,211.3,264.8s205,204.2,205,204.2"/>
	<path class="st0" d="M45.2,27.2c0,0,77.7,165.7,192,265.7s194,207.3,194,207.3"/>
	<path class="st0" d="M56.5,25.1c0,0,73.2,160.2,172.7,266.6s183,210.4,183,210.4"/>
	<path class="st0" d="M67.7,22.9c0,0,68.8,154.8,153.3,267.4s172,213.6,172,213.6"/>
	<path class="st0" d="M78.9,20.8c0,0,64.3,149.3,134,268.3s161,216.7,161,216.7"/>
	<path class="st0" d="M90.1,18.7c0,0,59.9,143.9,114.7,269.2s150,219.8,150,219.8"/>
	<path class="st0" d="M101.4,16.6c0,0,55.4,138.4,95.3,270.1s139,222.9,139,222.9"/>
	<path class="st0" d="M112.6,14.5c0,0,51,133,76,271s128,226,128,226"/>
</g>
</svg>